<?xml version="1.0"?>
<svg version="1.1" xmlns="http://www.w3.org/2000/svg" width="400" height="200" style="border: dashed 2px #aaa"><path fill="#000000" d="M16.575,118.9l0-2.1l2.975-0.7l0-18.9l-2.975-0.7l0-1.925l9.975-0.175l0,2.1l-3.325,0.7l0,7.7l3.22,0l6.055-10.325l5.775-0.175l0,2.1l-3.465,0.7l-5.32,8.855l7.21,10.045l2.975,0.7l0,2.1l-9.975,0l0-2.1l2.975-0.7l-6.02-8.4l-3.43,0l0,8.4l3.325,0.7l0,2.1l-9.975,0z M58.701,110.15l-12.075,0c0,3.85,2.065,6.3,5.075,6.3c3.5,0,5.88-1.925,5.88-1.925l1.225,1.82s-3.255,2.905-7.455,2.905c-5.6,0-8.4-3.675-8.4-9.45c0-5.6,3.5-9.8,8.575-9.8s7.35,2.975,7.35,8.225c0,0.875-0.175,1.855-0.175,1.925z M46.766,107.525l8.4,0c0-2.625-1.015-4.795-3.815-4.795s-4.375,2.17-4.585,4.795z M66.527,94.575c0-1.575,1.05-2.45,2.275-2.45c1.4,0,2.275,0.7,2.275,2.45c0,1.575-1.225,2.45-2.275,2.45c-1.4,0-2.275-0.875-2.275-2.45z M73.352,116.975l0,1.925l-9.1,0l0-1.925l2.975-0.875l0-12.95l-2.975-0.7l0-1.925l6.475-0.175l0,15.75z M89.753,100.525l0,2.625l-5.075,0l0,11.235c0,1.61,0.77,2.135,1.75,2.135c0.84,0,1.82-0.385,2.73-0.875l0.945,1.855c-1.575,1.155-3.15,1.75-4.9,1.75c-2.1,0-4.025-1.155-4.025-5.075l0-11.025l-3.5,0l0-2.275l3.5-0.35l0-4.41l3.5-0.7l0,5.11l5.075,0z M100.554,91.95l0,10.57c1.085-0.91,3.535-2.52,6.125-2.52c3.85,0,5.6,2.45,5.6,6.3l0,9.8l2.625,0.875l0,1.925l-8.4,0l0-1.925l2.275-0.84l0-9.485c0-2.45-0.77-3.675-3.045-3.675c-2.975,0-5.18,2.8-5.18,2.8l0,10.325l2.275,0.875l0,1.925l-8.75,0l0-1.925l2.975-0.875l0-21.35l-2.975-0.7l0-1.925z M133.356,118.9l0-2.1l3.5-0.7l0-18.9l-4.55,0l-0.875,3.5l-2.275,0l0-6.3l19.075,0l0,6.3l-2.275,0l-0.875-3.5l-4.55,0l0,18.9l3.5,0.7l0,2.1l-10.675,0z M158.332,91.95l0,10.57c1.085-0.91,3.535-2.52,6.125-2.52c3.85,0,5.6,2.45,5.6,6.3l0,9.8l2.625,0.875l0,1.925l-8.4,0l0-1.925l2.275-0.84l0-9.485c0-2.45-0.77-3.675-3.045-3.675c-2.975,0-5.18,2.8-5.18,2.8l0,10.325l2.275,0.875l0,1.925l-8.75,0l0-1.925l2.975-0.875l0-21.35l-2.975-0.7l0-1.925z M186.458,100c5.25,0,8.225,3.675,8.225,9.275c0,5.95-3.5,9.975-8.75,9.975s-8.4-3.15-8.4-9.45c0-5.95,3.675-9.8,8.925-9.8z M186.283,102.8c-3.5,0-5.075,2.275-5.075,6.825c0,4.2,1.4,6.825,4.9,6.825s4.9-2.45,4.9-7c0-3.85-1.225-6.65-4.725-6.65z M205.659,100.35l0.315,2.485c0.805-0.77,3.465-2.835,6.335-2.835c2.52,0,4.06,1.19,4.865,3.01c0.455-0.455,3.29-3.01,6.51-3.01c3.85,0,5.425,2.45,5.425,6.3l0,9.8l2.625,0.875l0,1.925l-8.4,0l0-1.925l2.275-0.875l0-9.45c0-2.45-0.7-3.675-2.975-3.675c-2.975,0-4.9,2.8-4.9,2.8l0,10.325l2.275,0.875l0,1.925l-8.05,0l0-1.925l2.275-0.875l0-9.45c0-2.45-0.7-3.675-2.975-3.675c-2.975,0-4.9,2.8-4.9,2.8l0,10.325l2.275,0.875l0,1.925l-8.75,0l0-1.925l2.975-0.875l0-12.95l-2.975-0.7l0-1.925z M242.01,100.35l0.28,1.96c1.05-0.98,2.905-2.31,5.32-2.31c5.075,0,7.525,3.675,7.525,9.1c0,5.95-2.975,10.15-9.45,10.15c-1.155,0-2.205-0.21-3.15-0.49l0,5.565l3.675,0.7l0,1.925l-9.975,0l0-1.925l2.8-0.7l0-21.175l-2.975-0.7l0-1.925z M242.535,105.25l0,10.5s1.05,0.7,3.675,0.7c4.06,0,5.25-3.15,5.25-7s-1.4-6.65-4.55-6.65s-4.375,2.45-4.375,2.45z M263.171,113.3l0.385,3.01s1.05,0.315,2.94,0.315c2.1,0,3.955-0.595,3.955-2.765c0-3.78-9.765-2.03-9.765-8.4c0-3.64,2.8-5.46,6.405-5.46c2.765,0,5.985,1.05,5.985,1.05l-0.105,4.725l-2.275,0l-0.56-2.73s-1.085-0.42-2.835-0.42c-1.785,0-3.115,0.56-3.115,2.345c0,3.745,9.765,2.31,9.765,8.295c0,4.025-3.5,5.985-7.7,5.985c-3.22,0-5.53-0.77-5.53-0.77l0-5.18l2.45,0z M288.252,100c5.25,0,8.225,3.675,8.225,9.275c0,5.95-3.5,9.975-8.75,9.975s-8.4-3.15-8.4-9.45c0-5.95,3.675-9.8,8.925-9.8z M288.077,102.8c-3.5,0-5.075,2.275-5.075,6.825c0,4.2,1.4,6.825,4.9,6.825s4.9-2.45,4.9-7c0-3.85-1.225-6.65-4.725-6.65z M307.453,100.35l0.315,2.485c0.84-0.735,3.605-2.835,6.51-2.835c3.85,0,5.6,2.45,5.6,6.3l0,9.8l2.625,0.875l0,1.925l-8.4,0l0-1.925l2.275-0.875l0-9.45c0-2.45-0.875-3.675-3.15-3.675c-2.975,0-5.075,2.8-5.075,2.8l0,10.325l2.275,0.875l0,1.925l-8.75,0l0-1.925l2.975-0.875l0-12.95l-2.975-0.7l0-1.925z"/><path fill="#" d=""/></svg>
