<?xml version="1.0" standalone="no"?>
<!DOCTYPE svg PUBLIC "-//W3C//DTD SVG 20010904//EN"
 "http://www.w3.org/TR/2001/REC-SVG-20010904/DTD/svg10.dtd">
<svg version="1.0" xmlns="http://www.w3.org/2000/svg"
 width="451.000000pt" height="84.000000pt" viewBox="0 0 451.000000 84.000000"
 preserveAspectRatio="xMidYMid meet">
<metadata>
Created by potrace 1.16, written by Peter Selinger 2001-2019
</metadata>
<g transform="translate(0.000000,84.000000) scale(0.100000,-0.100000)"
fill="#000000" stroke="none">
<path d="M140 415 l0 -215 25 0 c25 0 25 1 25 78 0 74 2 80 30 107 20 19 33
26 38 19 119 -186 134 -204 168 -204 l34 0 -85 127 -85 128 80 80 c44 44 80
84 80 88 0 4 -12 7 -28 7 -21 0 -48 -21 -122 -95 -52 -52 -98 -95 -102 -95 -5
0 -8 43 -8 95 0 95 0 95 -25 95 l-25 0 0 -215z"/>
<path d="M1200 416 l0 -216 25 0 c25 0 25 1 25 83 0 105 30 157 90 157 44 0
50 -16 50 -132 l0 -108 25 0 25 0 0 115 c0 110 -1 117 -25 140 -31 32 -94 34
-136 5 l-28 -21 -3 93 c-3 88 -4 93 -25 96 l-23 3 0 -215z"/>
<path d="M1700 605 c0 -24 2 -25 70 -25 l70 0 0 -190 0 -190 30 0 30 0 0 190
0 190 70 0 c68 0 70 1 70 25 l0 25 -170 0 -170 0 0 -25z"/>
<path d="M2100 416 l0 -216 25 0 c25 0 25 1 25 83 0 105 30 157 90 157 44 0
50 -16 50 -132 l0 -108 25 0 25 0 0 115 c0 110 -1 117 -25 140 -31 32 -94 34
-136 5 l-28 -21 -3 93 c-3 88 -4 93 -25 96 l-23 3 0 -215z"/>
<path d="M990 530 c0 -49 -1 -50 -30 -50 -23 0 -30 -4 -30 -20 0 -16 7 -20 30
-20 l30 0 0 -94 c0 -107 16 -141 73 -151 42 -8 87 9 87 34 0 16 -6 18 -46 13
-33 -3 -49 -1 -55 9 -5 8 -9 53 -9 102 l0 87 40 0 c33 0 40 3 40 20 0 17 -7
20 -40 20 l-40 0 0 50 c0 47 -2 50 -25 50 -23 0 -25 -3 -25 -50z"/>
<path d="M562 460 c-62 -38 -80 -146 -35 -209 59 -80 192 -75 221 8 10 29 9
31 -12 31 -14 0 -30 -10 -40 -25 -30 -46 -136 -24 -136 29 0 8 -3 21 -6 30 -5
14 7 16 101 16 l107 0 -7 33 c-19 93 -113 136 -193 87z"/>
<path d="M2473 460 c-47 -28 -66 -72 -61 -138 4 -48 10 -60 41 -88 73 -67 162
-50 205 38 33 65 24 119 -28 170 -32 32 -44 38 -81 38 -26 0 -57 -8 -76 -20z
m100 -31 c76 -35 56 -189 -24 -189 -44 0 -66 15 -79 56 -16 48 -5 99 27 124
29 23 42 24 76 9z"/>
<path d="M2750 340 l0 -140 25 0 c25 0 25 0 25 98 0 111 11 132 66 132 48 0
54 -14 54 -127 l0 -103 25 0 c25 0 25 0 25 95 0 83 3 98 21 116 14 14 30 19
57 17 l37 -3 3 -112 c3 -113 3 -113 27 -113 l25 0 0 115 c0 110 -1 117 -25
140 -32 33 -84 33 -122 1 l-28 -24 -22 24 c-29 31 -90 33 -121 4 l-22 -21 0
21 c0 15 -7 20 -25 20 l-25 0 0 -140z"/>
<path d="M3212 293 c3 -186 3 -188 26 -191 21 -3 22 0 22 57 0 65 3 69 34 46
43 -32 124 -8 151 45 22 43 20 137 -5 178 -31 51 -111 69 -158 36 -20 -14 -22
-14 -22 0 0 10 -9 16 -25 16 l-25 0 2 -187z m168 129 c13 -11 23 -33 27 -59
10 -79 -15 -123 -71 -123 -44 0 -68 28 -74 89 -4 46 -2 53 26 81 35 34 60 38
92 12z"/>
<path d="M3585 468 c-30 -16 -45 -39 -45 -68 0 -36 27 -58 96 -79 60 -18 81
-37 71 -65 -5 -14 -17 -16 -59 -14 -44 2 -55 7 -63 26 -6 13 -18 22 -32 22
-27 0 -28 -10 -8 -50 42 -80 215 -53 215 34 0 43 -21 60 -100 83 -47 14 -66
24 -69 38 -8 42 75 62 106 25 18 -21 63 -28 63 -9 0 6 -13 24 -29 40 -25 24
-37 29 -78 29 -26 0 -57 -6 -68 -12z"/>
<path d="M3893 460 c-47 -28 -66 -72 -61 -138 4 -48 10 -60 41 -88 73 -67 162
-50 205 38 33 65 24 119 -28 170 -32 32 -44 38 -81 38 -26 0 -57 -8 -76 -20z
m100 -31 c76 -35 56 -189 -24 -189 -44 0 -66 15 -79 56 -16 48 -5 99 27 124
29 23 42 24 76 9z"/>
<path d="M4170 340 l0 -140 25 0 c25 0 25 1 25 89 0 84 1 90 29 120 31 33 76
42 99 19 8 -8 12 -49 12 -120 l0 -108 25 0 25 0 0 115 c0 110 -1 117 -25 140
-31 31 -85 33 -131 4 l-34 -21 0 21 c0 16 -6 21 -25 21 l-25 0 0 -140z"/>
</g>
</svg>
